<svg width="1200" height="630" viewBox="0 0 1200 630" fill="none" xmlns="http://www.w3.org/2000/svg">
  <defs>
    <linearGradient id="bg" x1="0" y1="0" x2="1200" y2="630" gradientUnits="userSpaceOnUse">
      <stop stop-color="#F2EEFF"/>
      <stop offset="1" stop-color="#FFFFFF"/>
    </linearGradient>
    <linearGradient id="accent" x1="0" y1="0" x2="1" y2="1">
      <stop stop-color="#6F4BD8"/>
      <stop offset="1" stop-color="#8A68E8"/>
    </linearGradient>
  </defs>
  <rect width="1200" height="630" rx="24" fill="url(#bg)"/>
  <circle cx="1080" cy="-40" r="240" fill="#6F4BD8" fill-opacity="0.08"/>
  <circle cx="100" cy="560" r="160" fill="#6F4BD8" fill-opacity="0.08"/>

  <rect x="84" y="78" width="76" height="76" rx="16" fill="url(#accent)"/>
  <text x="122" y="126" text-anchor="middle" font-family="Inter, Arial, sans-serif" font-size="34" font-weight="700" fill="white">D</text>

  <text x="184" y="128" font-family="Inter, Arial, sans-serif" font-size="44" font-weight="700" fill="#111827">DanceHub</text>
  <text x="84" y="235" font-family="Inter, Arial, sans-serif" font-size="58" font-weight="700" fill="#111827">Software para escuelas de danza</text>
  <text x="84" y="286" font-family="Inter, Arial, sans-serif" font-size="30" font-weight="500" fill="#4B5563">Matriculas online, horarios, renovaciones y cobros en una sola plataforma</text>

  <rect x="84" y="352" width="470" height="54" rx="27" fill="#6F4BD8"/>
  <text x="319" y="387" text-anchor="middle" font-family="Inter, Arial, sans-serif" font-size="24" font-weight="600" fill="#FFFFFF">dancehub.es</text>

  <rect x="692" y="136" width="424" height="334" rx="22" fill="#FFFFFF" stroke="#E5E7EB" stroke-width="2"/>
  <rect x="722" y="176" width="110" height="80" rx="12" fill="#EFEAFF"/>
  <rect x="846" y="176" width="110" height="80" rx="12" fill="#EFEAFF"/>
  <rect x="970" y="176" width="110" height="80" rx="12" fill="#EFEAFF"/>
  <rect x="722" y="272" width="358" height="20" rx="10" fill="#F3F4F6"/>
  <rect x="722" y="308" width="320" height="20" rx="10" fill="#F3F4F6"/>
  <rect x="722" y="344" width="280" height="20" rx="10" fill="#F3F4F6"/>
  <rect x="722" y="394" width="164" height="42" rx="12" fill="#6F4BD8"/>
</svg>
