<svg width="1200" height="630" viewBox="0 0 1200 630" fill="none" xmlns="http://www.w3.org/2000/svg">
  <defs>
    <linearGradient id="bg" x1="0" y1="0" x2="1200" y2="630" gradientUnits="userSpaceOnUse">
      <stop stop-color="#FFF6E8"/>
      <stop offset="1" stop-color="#FFFFFF"/>
    </linearGradient>
    <linearGradient id="brand" x1="0" y1="0" x2="1" y2="1">
      <stop stop-color="#D9480F"/>
      <stop offset="1" stop-color="#F08C00"/>
    </linearGradient>
  </defs>

  <rect width="1200" height="630" rx="24" fill="url(#bg)"/>
  <circle cx="1110" cy="-70" r="260" fill="#F08C00" fill-opacity="0.12"/>
  <circle cx="80" cy="610" r="180" fill="#D9480F" fill-opacity="0.1"/>

  <rect x="78" y="72" width="76" height="76" rx="18" fill="url(#brand)"/>
  <text x="116" y="121" text-anchor="middle" font-family="Arial, sans-serif" font-size="36" font-weight="700" fill="#FFFFFF">D</text>
  <text x="178" y="122" font-family="Arial, sans-serif" font-size="42" font-weight="700" fill="#111827">DanceHub</text>

  <text x="78" y="230" font-family="Arial, sans-serif" font-size="58" font-weight="700" fill="#111827">Mas matriculas, menos caos</text>
  <text x="78" y="285" font-family="Arial, sans-serif" font-size="30" font-weight="500" fill="#374151">Horarios, renovaciones y cobros para escuelas de danza</text>

  <rect x="78" y="346" width="352" height="52" rx="26" fill="#111827"/>
  <text x="254" y="380" text-anchor="middle" font-family="Arial, sans-serif" font-size="23" font-weight="700" fill="#FFFFFF">Prueba gratis 14 dias</text>

  <rect x="454" y="346" width="224" height="52" rx="26" fill="#FFFFFF" stroke="#111827" stroke-width="2"/>
  <text x="566" y="380" text-anchor="middle" font-family="Arial, sans-serif" font-size="21" font-weight="700" fill="#111827">dancehub.es</text>

  <g>
    <rect x="706" y="116" width="420" height="386" rx="24" fill="#FFFFFF" stroke="#E5E7EB" stroke-width="2"/>
    <rect x="734" y="148" width="364" height="24" rx="12" fill="#F3F4F6"/>
    <rect x="734" y="190" width="108" height="84" rx="14" fill="#FFF1D6"/>
    <rect x="858" y="190" width="108" height="84" rx="14" fill="#FFE3B3"/>
    <rect x="982" y="190" width="108" height="84" rx="14" fill="#FFD89A"/>
    <rect x="734" y="292" width="334" height="18" rx="9" fill="#F3F4F6"/>
    <rect x="734" y="326" width="306" height="18" rx="9" fill="#F3F4F6"/>
    <rect x="734" y="360" width="244" height="18" rx="9" fill="#F3F4F6"/>
    <rect x="734" y="404" width="188" height="44" rx="12" fill="url(#brand)"/>
  </g>
</svg>
